<svg xmlns="http://www.w3.org/2000/svg" data-name="Layer 1" viewBox="0 0 64 64"><path fill="#f7941d" d="M32.17 35.15 8 59.3a2.42 2.42 0 0 1-1.81.7H6a2.38 2.38 0 0 1-1.28-.65 2.64 2.64 0 0 1-.5-.76A2.45 2.45 0 0 1 4 57.6a2.41 2.41 0 0 1 .17-.87 2.47 2.47 0 0 1 .2-.41 2.33 2.33 0 0 1 .3-.32l24.15-24.18.74.84q.42.5.87.93a11.52 11.52 0 0 0 .88.82Z"/><path fill="#f93d4a" d="M54.43 36.58a19.09 19.09 0 0 1-27 0 18.76 18.76 0 0 1-2.42-3 19.09 19.09 0 1 1 29.42 3Z"/><path fill="#fff" d="M45.7 33.07a8.87 8.87 0 0 1-7.17-.8 7.92 7.92 0 0 1-3.75-5.45 6.94 6.94 0 0 1 2.22-6.2 6.13 6.13 0 0 1 6.4-1 5.08 5.08 0 0 1 1.73 8.18 2.11 2.11 0 0 1-3 0 2.15 2.15 0 0 1-.6-1.8c.1-.62.93-1.21.76-1.82a1.11 1.11 0 0 0-.47-.58 1.7 1.7 0 0 0-1.69 0 2.38 2.38 0 0 0-1.06 1.38 2.92 2.92 0 0 0 0 1.78 3.61 3.61 0 0 0 1.69 2c2.57 1.43 5.53-.08 6.76-2.53a6.9 6.9 0 0 0-1.28-7.87 9.79 9.79 0 0 0-13.83 0c-3.91 3.9-4.73 10-3 15.08.51 1.53 1.06 3 1.69 4.49.09.22.23.54.44.94a12.1 12.1 0 0 0 .82 1.34A19.11 19.11 0 0 1 25 33.62c-.16-.65-.33-1.41-.47-2.28a19 19 0 0 1-.37-3.93 18 18 0 0 1 1.27-6 16.3 16.3 0 0 1 8.24-9 13.84 13.84 0 0 1 6.62-1.19A14.16 14.16 0 0 1 51 17.57c3.43 5.28.76 13.55-5.3 15.5Z"/></svg>